<?xml version="1.0" standalone="no"?><!DOCTYPE svg PUBLIC "-//W3C//DTD SVG 1.1//EN" "http://www.w3.org/Graphics/SVG/1.1/DTD/svg11.dtd"><svg t="1517816332818" class="icon" style="" viewBox="0 0 1024 1024" version="1.1" xmlns="http://www.w3.org/2000/svg" p-id="6132" xmlns:xlink="http://www.w3.org/1999/xlink" width="64" height="64"><defs><style type="text/css"></style></defs><path d="M640 796.330667L569.002667 725.333333h-242.346667L256 796.032V810.666667h384v-14.336z m84.949333-35.584H725.333333V896H170.666667v-135.253333h0.085333L170.666667 760.661333 291.328 640l0.085333 0.085333V640h313.173334v0.256l120.448 120.405333-0.085334 0.085334zM768 768h32.426667-32.426667l0.042667-21.333333-106.666667-106.666667h-185.002667 256.042667l0.170667 0.128 0.128-0.128 120.704 120.704-0.256 0.213333V896h-319.914667 234.581333L768 768z m-234.709333-176.853333a149.418667 149.418667 0 0 0 106.666666-143.146667v-85.333333a149.418667 149.418667 0 0 0-106.666666-143.146667 149.290667 149.290667 0 0 1 191.914666 143.104V448a149.290667 149.290667 0 0 1-191.914666 143.104zM448 213.333333A149.333333 149.333333 0 0 1 597.333333 362.666667v85.333333a149.333333 149.333333 0 1 1-298.666666 0v-85.333333A149.333333 149.333333 0 0 1 448 213.333333z m0 85.333334A64 64 0 0 0 384 362.666667v85.333333a64 64 0 0 0 128 0v-85.333333A64 64 0 0 0 448 298.666667z" fill="#444444" p-id="6133"></path></svg>